<svg xmlns="http://www.w3.org/2000/svg" version="1.1" xmlns:xlink="http://www.w3.org/1999/xlink" viewBox="0 0 200 200"><rect width="200" height="200" fill="url('#gradient')"></rect><defs><linearGradient id="gradient" gradientTransform="rotate(222 0.5 0.5)"><stop offset="0%" stop-color="#7dabaa"></stop><stop offset="100%" stop-color="#110215"></stop></linearGradient></defs><g><g fill="#fefcf4" transform="matrix(1.4452389913436205,0,0,1.4452389913436205,23.449166596317184,110.6971121160976)" stroke="#72818d" stroke-width="0"><path d="M8.87 0L6.36-5.02L4.50-5.02L4.50 0L1.07 0L1.07-14.22L6.67-14.22Q9.20-14.22 10.63-13.10Q12.05-11.97 12.05-9.92L12.05-9.92Q12.05-8.44 11.45-7.46Q10.85-6.48 9.57-5.88L9.57-5.88L12.54-0.15L12.54 0L8.87 0ZM4.50-11.57L4.50-7.67L6.67-7.67Q7.65-7.67 8.14-8.18Q8.63-8.69 8.63-9.61Q8.63-10.53 8.13-11.05Q7.64-11.57 6.67-11.57L6.67-11.57L4.50-11.57ZM20.36 0L20.26-1.14Q19.22 0.20 17.44 0.20L17.44 0.20Q15.70 0.20 14.81-0.82Q13.92-1.83 13.92-3.72L13.92-3.72L13.92-10.57L17.21-10.57L17.21-3.70Q17.21-2.34 18.53-2.34L18.53-2.34Q19.66-2.34 20.14-3.15L20.14-3.15L20.14-10.57L23.45-10.57L23.45 0L20.36 0ZM30.78-2.97L30.78-2.97Q30.78-3.39 30.34-3.64Q29.90-3.90 28.67-4.17Q27.44-4.44 26.64-4.89Q25.84-5.33 25.42-5.97Q25-6.60 25-7.42L25-7.42Q25-8.88 26.20-9.82Q27.40-10.76 29.35-10.76L29.35-10.76Q31.44-10.76 32.71-9.81Q33.97-8.87 33.97-7.32L33.97-7.32L30.67-7.32Q30.67-8.59 29.34-8.59L29.34-8.59Q28.82-8.59 28.47-8.31Q28.12-8.02 28.12-7.59L28.12-7.59Q28.12-7.15 28.54-6.88Q28.97-6.60 29.92-6.43Q30.86-6.25 31.57-6.01L31.57-6.01Q33.96-5.19 33.96-3.07L33.96-3.07Q33.96-1.62 32.67-0.71Q31.39 0.20 29.35 0.20L29.35 0.20Q27.99 0.20 26.92-0.29Q25.86-0.78 25.26-1.62Q24.67-2.46 24.67-3.39L24.67-3.39L27.74-3.39Q27.76-2.66 28.23-2.32Q28.70-1.98 29.43-1.98L29.43-1.98Q30.11-1.98 30.44-2.26Q30.78-2.53 30.78-2.97ZM38.71-15L38.71-9.43Q39.77-10.76 41.41-10.76L41.41-10.76Q43.15-10.76 44.04-9.73Q44.93-8.69 44.95-6.67L44.95-6.67L44.95 0L41.65 0L41.65-6.59Q41.65-7.43 41.31-7.83Q40.97-8.22 40.15-8.22L40.15-8.22Q39.13-8.22 38.71-7.58L38.71-7.58L38.71 0L35.42 0L35.42-15L38.71-15ZM50.25-10.57L50.25 0L46.95 0L46.95-10.57L50.25-10.57ZM46.76-13.29L46.76-13.29Q46.76-13.99 47.27-14.44Q47.77-14.89 48.58-14.89Q49.39-14.89 49.90-14.44Q50.41-13.99 50.41-13.29Q50.41-12.59 49.90-12.14Q49.39-11.69 48.58-11.69Q47.77-11.69 47.27-12.14Q46.76-12.59 46.76-13.29ZM55.75-15L55.75 0L52.45 0L52.45-15L55.75-15ZM61.25-15L61.25 0L57.95 0L57.95-15L61.25-15ZM80.28-14.22L80.28 0L76.88 0L71.84-8.85L71.84 0L68.41 0L68.41-14.22L71.84-14.22L76.87-5.37L76.87-14.22L80.28-14.22ZM91.54 0L88.25 0Q88.08-0.32 87.94-0.95L87.94-0.95Q87.03 0.20 85.40 0.20L85.40 0.20Q83.91 0.20 82.86-0.71Q81.82-1.61 81.82-2.98L81.82-2.98Q81.82-4.70 83.09-5.58Q84.36-6.46 86.78-6.46L86.78-6.46L87.79-6.46L87.79-7.01Q87.79-8.47 86.53-8.47L86.53-8.47Q85.36-8.47 85.36-7.31L85.36-7.31L82.07-7.31Q82.07-8.85 83.37-9.80Q84.68-10.76 86.70-10.76Q88.72-10.76 89.89-9.78Q91.06-8.79 91.09-7.07L91.09-7.07L91.09-2.39Q91.11-0.94 91.54-0.17L91.54-0.17L91.54 0ZM86.19-2.15L86.19-2.15Q86.81-2.15 87.21-2.41Q87.62-2.68 87.79-3.01L87.79-3.01L87.79-4.70L86.84-4.70Q85.12-4.70 85.12-3.15L85.12-3.15Q85.12-2.71 85.42-2.43Q85.72-2.15 86.19-2.15ZM96.39-10.57L96.39 0L93.09 0L93.09-10.57L96.39-10.57ZM92.89-13.29L92.89-13.29Q92.89-13.99 93.40-14.44Q93.91-14.89 94.72-14.89Q95.53-14.89 96.04-14.44Q96.54-13.99 96.54-13.29Q96.54-12.59 96.04-12.14Q95.53-11.69 94.72-11.69Q93.91-11.69 93.40-12.14Q92.89-12.59 92.89-13.29ZM104.86-10.64L104.80-7.59L103.72-7.67Q102.17-7.67 101.73-6.69L101.73-6.69L101.73 0L98.44 0L98.44-10.57L101.52-10.57L101.63-9.21Q102.46-10.76 103.95-10.76L103.95-10.76Q104.47-10.76 104.86-10.64L104.86-10.64Z"></path></g></g></svg>